# xmcd
#
# Track frame offsets:
#	150
#	13509
#	27557
#	38079
#	48869
#	64402
#	73224
#	82499
#	94147
#	105392
#	118187
#	128852
#	138879
#	148522
#	172076
#
# Disc length: 4440 seconds
#
# Revision: 0
# Processed by: cddbd v1.5.2PL0 Copyright (c) Steve Scherf et al.
# Submitted via: dBpowerAMP V4.0
#
DISCID=dd11560f
DTITLE=Moreira da Silva - Coletanea
DYEAR=2006
DGENRE=Samba
TTITLE0=Moreira da Silva - Aquele adeus
TTITLE1=Moreira da Silva - O rei do gatilho
TTITLE2=Moreira da Silva - Anuncio de mulher
TTITLE3=Moreira da Silva - Ciumento
TTITLE4=Moreira da Silva - O ultimo dos mohicanos
TTITLE5=Moreira da Silva - Chave de cadeia
TTITLE6=Moreira da Silva - Baiana da Lapa
TTITLE7=Moreira da Silva - Fui ao dentista
TTITLE8=Moreira da Silva - Mulher que tem cabeça
TTITLE9=Moreira da Silva - Cigano
TTITLE10=Moreira da Silva - Mulher ma
TTITLE11=Moreira da Silva - Conversa de botequim
TTITLE12=Moreira da Silva - Analfabeto
TTITLE13=Moreira da Silva - Piston de gafieira
TTITLE14=DATA
EXTD=
EXTT0=
EXTT1=
EXTT2=
EXTT3=
EXTT4=
EXTT5=
EXTT6=
EXTT7=
EXTT8=
EXTT9=
EXTT10=
EXTT11=
EXTT12=
EXTT13=
EXTT14=
PLAYORDER=
